<?xml version="1.0" encoding="UTF-8"?>
<svg width="58px" height="69px" viewBox="0 0 58 69" version="1.1" xmlns="http://www.w3.org/2000/svg" xmlns:xlink="http://www.w3.org/1999/xlink">
    <title>E3B9CDE4-7086-4C7B-AC66-C754F1C375C1</title>
    <defs>
        <radialGradient cx="100%" cy="0%" fx="100%" fy="0%" r="157.305111%" gradientTransform="translate(1.000000,0.000000),scale(1.000000,0.823529),rotate(129.472460),translate(-1.000000,-0.000000)" id="radialGradient-1">
            <stop stop-color="#C1A652" offset="0%"></stop>
            <stop stop-color="#EACE78" offset="100%"></stop>
        </radialGradient>
    </defs>
    <g id="Angebot" stroke="none" stroke-width="1" fill="none" fill-rule="evenodd">
        <g id="Body-Healing" transform="translate(-534.000000, -533.000000)">
            <g id="Group-2" transform="translate(432.000000, 534.000000)">
                <g id="selfie" transform="translate(103.000000, 0.000000)">
                    <path d="M49.847998,45.5134645 C53.6971787,40.7178037 56,34.6278282 56,28 C56,12.536027 43.463973,0 28,0 C12.536027,0 0,12.536027 0,28 C0,34.56065 2.25637611,40.5942951 6.03543594,45.367243" id="Path" stroke="#744659" stroke-width="2" stroke-linecap="round" stroke-linejoin="round" stroke-dasharray="0,5"></path>
                    <path d="M21,42.618 L21,50 L5.802,54.342 C2.368,55.323 0,58.463 0,62.034 L0,67 M56,67 L56,62.034 C56,58.462 53.632,55.323 50.198,54.342 L35,50 L35,42.618" id="Shape" stroke="#744659" stroke-width="2" stroke-linecap="round" stroke-linejoin="round"></path>
                    <path d="M28,45 C20.268,45 14,36.732 14,29 L14,25 C14,17.268 20.268,11 28,11 C35.732,11 42,17.268 42,25 L42,29 C42,36.732 35.732,45 28,45 Z" id="Path" fill="url(#radialGradient-1)"></path>
                </g>
            </g>
        </g>
    </g>
</svg>