<?xml version="1.0" encoding="UTF-8"?>
<svg width="58px" height="60px" viewBox="0 0 58 60" version="1.1" xmlns="http://www.w3.org/2000/svg" xmlns:xlink="http://www.w3.org/1999/xlink">
    <title>8D666F4A-0D5B-4CE7-9E9A-4CD7720843CF</title>
    <defs>
        <radialGradient cx="100%" cy="0%" fx="100%" fy="0%" r="141.421356%" id="radialGradient-1">
            <stop stop-color="#C1A652" offset="0%"></stop>
            <stop stop-color="#EACE78" offset="100%"></stop>
        </radialGradient>
    </defs>
    <g id="Angebot" stroke="none" stroke-width="1" fill="none" fill-rule="evenodd">
        <g id="Body-Healing" transform="translate(-1159.000000, -537.000000)">
            <g id="Group-4" transform="translate(1057.000000, 537.000000)">
                <g id="icon-Termin" transform="translate(103.000000, 0.000000)">
                    <g id="opening-times" transform="translate(0.000000, 1.000000)">
                        <line x1="56" y1="20" x2="0" y2="20" id="Path" stroke="#744659" stroke-width="2" stroke-linecap="round" stroke-linejoin="round" stroke-dasharray="0,5"></line>
                        <path d="M25,53 L5,53 C2.23857625,53 0,50.7614237 0,48 L0,11 C0,8.23857625 2.23857625,6 5,6 L51,6 C53.7614237,6 56,8.23857625 56,11 L56,31" id="Path" stroke="#744659" stroke-width="2" stroke-linecap="round" stroke-linejoin="round"></path>
                        <line x1="13" y1="0" x2="13" y2="12" id="Path" stroke="#744659" stroke-width="2" stroke-linecap="round" stroke-linejoin="round"></line>
                        <line x1="43" y1="0" x2="43" y2="12" id="Path" stroke="#744659" stroke-width="2" stroke-linecap="round" stroke-linejoin="round"></line>
                        <circle id="Oval" fill="url(#radialGradient-1)" cx="43" cy="46" r="12"></circle>
                        <polyline id="Path" stroke="#744659" stroke-width="2" stroke-linecap="round" stroke-linejoin="round" points="43 41 43 46 48 46"></polyline>
                    </g>
                </g>
            </g>
        </g>
    </g>
</svg>